<mxfile host="app.diagrams.net" modified="2021-01-25T08:23:48.968Z" agent="5.0 (Macintosh; Intel Mac OS X 10_15_7) AppleWebKit/537.36 (KHTML, like Gecko) Chrome/87.0.4280.141 Safari/537.36" etag="e1PPgTBtGFJEpqOS3OQ1" version="14.2.7" type="github">
  <diagram id="C5RBs43oDa-KdzZeNtuy" name="Page-1">
    <mxGraphModel dx="946" dy="623" grid="1" gridSize="10" guides="1" tooltips="1" connect="1" arrows="1" fold="1" page="1" pageScale="1" pageWidth="827" pageHeight="1169" math="0" shadow="0">
      <root>
        <mxCell id="WIyWlLk6GJQsqaUBKTNV-0" />
        <mxCell id="WIyWlLk6GJQsqaUBKTNV-1" parent="WIyWlLk6GJQsqaUBKTNV-0" />
        <mxCell id="IiYEw5zkBM-A2O__mtax-2" style="edgeStyle=orthogonalEdgeStyle;rounded=0;orthogonalLoop=1;jettySize=auto;html=1;exitX=0.5;exitY=1;exitDx=0;exitDy=0;entryX=0.575;entryY=0.017;entryDx=0;entryDy=0;entryPerimeter=0;" edge="1" parent="WIyWlLk6GJQsqaUBKTNV-1" source="WIyWlLk6GJQsqaUBKTNV-3" target="IiYEw5zkBM-A2O__mtax-0">
          <mxGeometry relative="1" as="geometry" />
        </mxCell>
        <mxCell id="WIyWlLk6GJQsqaUBKTNV-3" value="끝말잇기 시작" style="rounded=1;whiteSpace=wrap;html=1;fontSize=12;glass=0;strokeWidth=1;shadow=0;" parent="WIyWlLk6GJQsqaUBKTNV-1" vertex="1">
          <mxGeometry x="160" y="80" width="120" height="40" as="geometry" />
        </mxCell>
        <mxCell id="IiYEw5zkBM-A2O__mtax-3" style="edgeStyle=orthogonalEdgeStyle;rounded=0;orthogonalLoop=1;jettySize=auto;html=1;exitX=0.5;exitY=1;exitDx=0;exitDy=0;" edge="1" parent="WIyWlLk6GJQsqaUBKTNV-1" source="IiYEw5zkBM-A2O__mtax-0" target="IiYEw5zkBM-A2O__mtax-4">
          <mxGeometry relative="1" as="geometry">
            <mxPoint x="211" y="280" as="targetPoint" />
          </mxGeometry>
        </mxCell>
        <mxCell id="IiYEw5zkBM-A2O__mtax-0" value="첫 단어 입력" style="shape=parallelogram;perimeter=parallelogramPerimeter;whiteSpace=wrap;html=1;fixedSize=1;" vertex="1" parent="WIyWlLk6GJQsqaUBKTNV-1">
          <mxGeometry x="151" y="180" width="120" height="60" as="geometry" />
        </mxCell>
        <mxCell id="IiYEw5zkBM-A2O__mtax-5" value="예" style="edgeStyle=orthogonalEdgeStyle;rounded=0;orthogonalLoop=1;jettySize=auto;html=1;exitX=0.5;exitY=1;exitDx=0;exitDy=0;" edge="1" parent="WIyWlLk6GJQsqaUBKTNV-1" source="IiYEw5zkBM-A2O__mtax-4">
          <mxGeometry relative="1" as="geometry">
            <mxPoint x="211" y="400" as="targetPoint" />
          </mxGeometry>
        </mxCell>
        <mxCell id="IiYEw5zkBM-A2O__mtax-8" value="아니오" style="edgeStyle=orthogonalEdgeStyle;rounded=0;orthogonalLoop=1;jettySize=auto;html=1;exitX=1;exitY=0.5;exitDx=0;exitDy=0;entryX=1;entryY=0.5;entryDx=0;entryDy=0;" edge="1" parent="WIyWlLk6GJQsqaUBKTNV-1" source="IiYEw5zkBM-A2O__mtax-4" target="IiYEw5zkBM-A2O__mtax-0">
          <mxGeometry x="-0.6977" relative="1" as="geometry">
            <mxPoint x="320" y="210" as="targetPoint" />
            <Array as="points">
              <mxPoint x="330" y="320" />
              <mxPoint x="330" y="210" />
            </Array>
            <mxPoint as="offset" />
          </mxGeometry>
        </mxCell>
        <mxCell id="IiYEw5zkBM-A2O__mtax-4" value="문자인가?" style="rhombus;whiteSpace=wrap;html=1;" vertex="1" parent="WIyWlLk6GJQsqaUBKTNV-1">
          <mxGeometry x="171" y="280" width="80" height="80" as="geometry" />
        </mxCell>
        <mxCell id="IiYEw5zkBM-A2O__mtax-11" style="edgeStyle=orthogonalEdgeStyle;rounded=0;orthogonalLoop=1;jettySize=auto;html=1;exitX=0.5;exitY=1;exitDx=0;exitDy=0;entryX=0.5;entryY=0;entryDx=0;entryDy=0;" edge="1" parent="WIyWlLk6GJQsqaUBKTNV-1" source="IiYEw5zkBM-A2O__mtax-9" target="IiYEw5zkBM-A2O__mtax-10">
          <mxGeometry relative="1" as="geometry" />
        </mxCell>
        <mxCell id="IiYEw5zkBM-A2O__mtax-9" value="단어 입력" style="shape=parallelogram;perimeter=parallelogramPerimeter;whiteSpace=wrap;html=1;fixedSize=1;" vertex="1" parent="WIyWlLk6GJQsqaUBKTNV-1">
          <mxGeometry x="151" y="520" width="120" height="60" as="geometry" />
        </mxCell>
        <mxCell id="IiYEw5zkBM-A2O__mtax-12" value="아니오" style="edgeStyle=orthogonalEdgeStyle;rounded=0;orthogonalLoop=1;jettySize=auto;html=1;exitX=1;exitY=0.5;exitDx=0;exitDy=0;entryX=1;entryY=0.5;entryDx=0;entryDy=0;" edge="1" parent="WIyWlLk6GJQsqaUBKTNV-1" source="IiYEw5zkBM-A2O__mtax-10" target="IiYEw5zkBM-A2O__mtax-9">
          <mxGeometry x="-0.709" relative="1" as="geometry">
            <Array as="points">
              <mxPoint x="330" y="670" />
              <mxPoint x="330" y="550" />
            </Array>
            <mxPoint as="offset" />
          </mxGeometry>
        </mxCell>
        <mxCell id="IiYEw5zkBM-A2O__mtax-13" value="예" style="edgeStyle=orthogonalEdgeStyle;rounded=0;orthogonalLoop=1;jettySize=auto;html=1;exitX=0.5;exitY=1;exitDx=0;exitDy=0;" edge="1" parent="WIyWlLk6GJQsqaUBKTNV-1" source="IiYEw5zkBM-A2O__mtax-10">
          <mxGeometry relative="1" as="geometry">
            <mxPoint x="211" y="760" as="targetPoint" />
          </mxGeometry>
        </mxCell>
        <mxCell id="IiYEw5zkBM-A2O__mtax-10" value="문자인가?" style="rhombus;whiteSpace=wrap;html=1;" vertex="1" parent="WIyWlLk6GJQsqaUBKTNV-1">
          <mxGeometry x="171" y="630" width="80" height="80" as="geometry" />
        </mxCell>
        <mxCell id="IiYEw5zkBM-A2O__mtax-15" value="아니오" style="edgeStyle=orthogonalEdgeStyle;rounded=0;orthogonalLoop=1;jettySize=auto;html=1;exitX=1;exitY=0.5;exitDx=0;exitDy=0;" edge="1" parent="WIyWlLk6GJQsqaUBKTNV-1" source="IiYEw5zkBM-A2O__mtax-14">
          <mxGeometry x="-0.6268" relative="1" as="geometry">
            <mxPoint x="330" y="670" as="targetPoint" />
            <mxPoint as="offset" />
          </mxGeometry>
        </mxCell>
        <mxCell id="IiYEw5zkBM-A2O__mtax-16" value="예" style="edgeStyle=orthogonalEdgeStyle;rounded=0;orthogonalLoop=1;jettySize=auto;html=1;exitX=0.5;exitY=1;exitDx=0;exitDy=0;entryX=1;entryY=0.5;entryDx=0;entryDy=0;" edge="1" parent="WIyWlLk6GJQsqaUBKTNV-1" source="IiYEw5zkBM-A2O__mtax-14" target="IiYEw5zkBM-A2O__mtax-17">
          <mxGeometry x="-0.7086" relative="1" as="geometry">
            <mxPoint x="211" y="890" as="targetPoint" />
            <Array as="points">
              <mxPoint x="211" y="880" />
              <mxPoint x="390" y="880" />
              <mxPoint x="390" y="430" />
            </Array>
            <mxPoint as="offset" />
          </mxGeometry>
        </mxCell>
        <mxCell id="IiYEw5zkBM-A2O__mtax-14" value="규칙에 맞는가?" style="rhombus;whiteSpace=wrap;html=1;" vertex="1" parent="WIyWlLk6GJQsqaUBKTNV-1">
          <mxGeometry x="171" y="760" width="80" height="80" as="geometry" />
        </mxCell>
        <mxCell id="IiYEw5zkBM-A2O__mtax-18" style="edgeStyle=orthogonalEdgeStyle;rounded=0;orthogonalLoop=1;jettySize=auto;html=1;exitX=0.5;exitY=1;exitDx=0;exitDy=0;entryX=0.5;entryY=0;entryDx=0;entryDy=0;" edge="1" parent="WIyWlLk6GJQsqaUBKTNV-1" source="IiYEw5zkBM-A2O__mtax-17" target="IiYEw5zkBM-A2O__mtax-9">
          <mxGeometry relative="1" as="geometry" />
        </mxCell>
        <mxCell id="IiYEw5zkBM-A2O__mtax-17" value="첫 글자 설정" style="rounded=0;whiteSpace=wrap;html=1;" vertex="1" parent="WIyWlLk6GJQsqaUBKTNV-1">
          <mxGeometry x="151" y="400" width="120" height="60" as="geometry" />
        </mxCell>
      </root>
    </mxGraphModel>
  </diagram>
</mxfile>
